<svg xmlns="http://www.w3.org/2000/svg" width="49.789" height="32" viewBox="0 0 49.789 32">
  <path id="sofa" d="M68.158,113.579H65.632v-4.738A4.848,4.848,0,0,0,60.787,104H27.739a4.848,4.848,0,0,0-4.844,4.841v4.738H19.632a.632.632,0,0,0-.632.632v15.474a.632.632,0,0,0,.632.632h1.158v5.054a.624.624,0,0,0,.623.631h5.713a.614.614,0,0,0,.612-.631v-5.054H60.789v5.054A.614.614,0,0,0,61.4,136h5.713a.624.624,0,0,0,.623-.631v-5.054h.421a.632.632,0,0,0,.632-.632V114.211A.632.632,0,0,0,68.158,113.579ZM26.474,134.737H22.053v-4.421h4.421Zm8.421-5.684H20.263V114.842h6.316v7.368a.632.632,0,0,0,.632.632h1.755a.632.632,0,0,0,0-1.263H27.842v-7.368a.632.632,0,0,0-.632-.632H24.158v-4.738a3.584,3.584,0,0,1,3.581-3.578H43.316v2.386a.632.632,0,0,0,1.263,0v-2.386H60.787a3.584,3.584,0,0,1,3.581,3.578v4.738H60.684a.632.632,0,0,0-.632.632v7.368H55.846l2.325-2.325a.632.632,0,0,0,0-.893l-5.408-5.409a.632.632,0,0,0-.893,0l-5.408,5.409a.632.632,0,0,0,0,.893l2.325,2.325H44.579V110.105a.632.632,0,1,0-1.263,0v11.474H39.425l2.325-2.325a.632.632,0,0,0,0-.893l-5.408-5.409a.632.632,0,0,0-.893,0l-5.408,5.409a.632.632,0,0,0,0,.893l2.325,2.325H31.351a.632.632,0,1,0,0,1.263h3.544Zm19.165-7.474H50.572L47.8,118.807l4.516-4.516,4.516,4.516Zm-16.421,0H34.151l-2.772-2.772,4.516-4.516,4.516,4.516Zm14.1,7.474H36.158v-6.211H51.737Zm14.737,5.684H62.053v-4.421h4.421Zm1.053-5.684H53v-6.211h7.684a.632.632,0,0,0,.632-.632v-7.368h6.211Z" transform="translate(-19 -104)"/>
</svg>
