<svg xmlns="http://www.w3.org/2000/svg" width="28.662" height="24" viewBox="0 0 28.662 24">
  <path id="Twitter" d="M891.869,145.159a10.632,10.632,0,0,1-3.745,1.452,5.893,5.893,0,0,0-4.28-1.911,5.971,5.971,0,0,0-5.885,6.038,8.418,8.418,0,0,0,.153,1.376,16.55,16.55,0,0,1-12.076-6.268,5.866,5.866,0,0,0-.764,3.057,6.366,6.366,0,0,0,2.6,5.045,5.433,5.433,0,0,1-2.675-.764v.076a5.924,5.924,0,0,0,4.739,5.885,4.928,4.928,0,0,1-1.529.229,4.7,4.7,0,0,1-1.07-.076,6,6,0,0,0,5.5,4.2,11.537,11.537,0,0,1-7.261,2.6,8.307,8.307,0,0,1-1.376-.076,16.462,16.462,0,0,0,9.019,2.675c10.777,0,16.739-9.172,16.739-17.121v-.764a11.368,11.368,0,0,0,2.9-3.134,10.49,10.49,0,0,1-3.363.917A7.523,7.523,0,0,0,891.869,145.159Z" transform="translate(-864.2 -144.7)" fill="#fff"/>
</svg>
