<svg xmlns="http://www.w3.org/2000/svg" width="32.119" height="32" viewBox="0 0 32.119 32">
  <g id="bath" transform="translate(0 -0.949)">
    <g id="Group_167" data-name="Group 167" transform="translate(0 16.889)">
      <g id="Group_166" data-name="Group 166">
        <path id="Path_105" data-name="Path 105" d="M30.112,255.051H2.007a2.007,2.007,0,1,0,0,4.015h28.1a2.007,2.007,0,1,0,0-4.015Zm0,2.677H2.007a.669.669,0,0,1,0-1.338h28.1a.669.669,0,0,1,0,1.338Z" transform="translate(0 -255.051)"/>
      </g>
    </g>
    <g id="Group_169" data-name="Group 169" transform="translate(1.339 19.566)">
      <g id="Group_168" data-name="Group 168">
        <path id="Path_106" data-name="Path 106" d="M50.3,297.741a.666.666,0,0,0-.827.46l-1.844,6.456a3.361,3.361,0,0,1-3.217,2.426h-16.7a3.362,3.362,0,0,1-3.217-2.426L22.656,298.2a.669.669,0,1,0-1.286.367l1.844,6.456a4.7,4.7,0,0,0,4.5,3.4H44.412a4.7,4.7,0,0,0,4.5-3.4l1.844-6.456A.668.668,0,0,0,50.3,297.741Z" transform="translate(-21.344 -297.716)"/>
      </g>
    </g>
    <g id="Group_171" data-name="Group 171" transform="translate(4.888 22.243)">
      <g id="Group_170" data-name="Group 170">
        <path id="Path_107" data-name="Path 107" d="M80.747,344.413a.675.675,0,0,1-.644-.486l-.869-3.043a.669.669,0,1,0-1.286.367l.869,3.043a2.014,2.014,0,0,0,1.93,1.456.668.668,0,1,0,0-1.337Z" transform="translate(-77.923 -340.398)"/>
      </g>
    </g>
    <g id="Group_173" data-name="Group 173" transform="translate(6.691 28.934)">
      <g id="Group_172" data-name="Group 172">
        <path id="Path_108" data-name="Path 108" d="M108.96,447.122a.672.672,0,0,0-.9.3l-1.338,2.677a.669.669,0,1,0,1.2.6l1.338-2.677A.67.67,0,0,0,108.96,447.122Z" transform="translate(-106.654 -447.053)"/>
      </g>
    </g>
    <g id="Group_175" data-name="Group 175" transform="translate(22.751 28.934)">
      <g id="Group_174" data-name="Group 174">
        <path id="Path_109" data-name="Path 109" d="M365.281,450.1l-1.338-2.677a.669.669,0,1,0-1.2.6l1.338,2.677a.669.669,0,0,0,.6.369.692.692,0,0,0,.3-.07A.67.67,0,0,0,365.281,450.1Z" transform="translate(-362.675 -447.055)"/>
      </g>
    </g>
    <g id="Group_177" data-name="Group 177" transform="translate(22.752 0.949)">
      <g id="Group_176" data-name="Group 176" transform="translate(0 0)">
        <path id="Path_110" data-name="Path 110" d="M366.811.949A2.541,2.541,0,0,0,365,1.7l-2.124,2.124a.669.669,0,0,0,.946.946l2.124-2.123a1.223,1.223,0,0,1,2.086.861V17.559a.67.67,0,0,0,1.34,0V3.505A2.56,2.56,0,0,0,366.811.949Z" transform="translate(-362.683 -0.949)"/>
      </g>
    </g>
    <g id="Group_179" data-name="Group 179" transform="translate(18.737 2.957)">
      <g id="Group_178" data-name="Group 178">
        <path id="Path_111" data-name="Path 111" d="M304.5,34.5l-1.338-1.338a.658.658,0,0,0-.582-.187l-3.346.549a.668.668,0,0,0-.372,1.125l4.015,4.135a.661.661,0,0,0,.479.2.732.732,0,0,0,.191-.027.667.667,0,0,0,.467-.51l.669-3.346A.67.67,0,0,0,304.5,34.5Zm-1.551,2.438-2.236-2.3,1.744-.285.842.842Z" transform="translate(-298.677 -32.963)"/>
      </g>
    </g>
    <g id="Group_181" data-name="Group 181" transform="translate(13.383 8.861)">
      <g id="Group_180" data-name="Group 180" transform="translate(0 0)">
        <path id="Path_112" data-name="Path 112" d="M215.808,127.263a.67.67,0,0,0-.946,0l-1.338,1.338a.669.669,0,0,0,.946.946l1.338-1.338A.67.67,0,0,0,215.808,127.263Z" transform="translate(-213.328 -127.067)"/>
      </g>
    </g>
    <g id="Group_183" data-name="Group 183" transform="translate(16.059 11.537)">
      <g id="Group_182" data-name="Group 182">
        <path id="Path_113" data-name="Path 113" d="M258.475,169.929a.67.67,0,0,0-.946,0l-1.338,1.338a.669.669,0,0,0,.946.946l1.338-1.338A.67.67,0,0,0,258.475,169.929Z" transform="translate(-255.995 -169.733)"/>
      </g>
    </g>
    <g id="Group_185" data-name="Group 185" transform="translate(17.397 7.522)">
      <g id="Group_184" data-name="Group 184">
        <path id="Path_114" data-name="Path 114" d="M279.808,105.929a.67.67,0,0,0-.946,0l-1.338,1.338a.669.669,0,0,0,.946.946l1.338-1.338A.67.67,0,0,0,279.808,105.929Z" transform="translate(-277.328 -105.733)"/>
      </g>
    </g>
  </g>
</svg>
