<svg xmlns="http://www.w3.org/2000/svg" width="24.131" height="24" viewBox="0 0 24.131 24">
  <path id="Facebook" d="M374.031,164.689A1.315,1.315,0,0,1,372.72,166h-6.164v-9.311H369.7l.459-3.607h-3.607v-2.3c0-1.049.262-1.77,1.77-1.77h1.9v-3.279a21.478,21.478,0,0,0-2.82-.131c-2.754,0-4.656,1.7-4.656,4.787v2.689H359.6v3.607h3.148V166H351.211a1.315,1.315,0,0,1-1.311-1.311V143.311A1.315,1.315,0,0,1,351.211,142h21.443a1.315,1.315,0,0,1,1.311,1.311v21.377Z" transform="translate(-349.9 -142)" fill="#fff"/>
</svg>
