<svg xmlns="http://www.w3.org/2000/svg" width="45.091" height="32" viewBox="0 0 45.091 32">
  <path id="bed_4_" data-name="bed (4)" d="M52.364,104h-.727V98.182a2.913,2.913,0,0,0-2.909-2.909V82.909A2.913,2.913,0,0,0,45.818,80H15.273a2.913,2.913,0,0,0-2.909,2.909V95.273a2.913,2.913,0,0,0-2.909,2.909V104H8.727a.727.727,0,0,0-.727.727v2.909a.727.727,0,0,0,.727.727h.727v2.909a.727.727,0,0,0,.727.727h2.182a.726.726,0,0,0,.713-.585l.611-3.052H47.4l.611,3.052a.726.726,0,0,0,.713.585h2.182a.727.727,0,0,0,.727-.727v-2.909h.727a.727.727,0,0,0,.727-.727v-2.909A.727.727,0,0,0,52.364,104ZM13.818,82.909a1.456,1.456,0,0,1,1.455-1.455H45.818a1.456,1.456,0,0,1,1.455,1.455V95.273H45.818V92.364a2.913,2.913,0,0,0-2.909-2.909H34.182a2.913,2.913,0,0,0-2.909,2.909v2.909H29.818V92.364a2.913,2.913,0,0,0-2.909-2.909H18.182a2.913,2.913,0,0,0-2.909,2.909v2.909H13.818Zm30.545,9.455v2.909H32.727V92.364a1.456,1.456,0,0,1,1.455-1.455h8.727A1.456,1.456,0,0,1,44.364,92.364Zm-16,0v2.909H16.727V92.364a1.456,1.456,0,0,1,1.455-1.455h8.727A1.456,1.456,0,0,1,28.364,92.364ZM10.909,98.182a1.456,1.456,0,0,1,1.455-1.455H48.727a1.456,1.456,0,0,1,1.455,1.455V104H10.909Zm.858,12.364h-.858v-2.182H12.2Zm38.415,0h-.858l-.436-2.182h1.295Zm1.455-3.636H9.455v-1.455H51.636Z" transform="translate(-8 -80)"/>
</svg>
