<svg xmlns="http://www.w3.org/2000/svg" width="26.508" height="24" viewBox="0 0 26.508 24">
  <g id="LinkedIn" transform="translate(-736.3 -144.1)">
    <rect id="Rectangle_18" data-name="Rectangle 18" width="5.158" height="16.334" transform="translate(737.016 151.766)" fill="#fff"/>
    <path id="Path_100" data-name="Path 100" d="M759.761,154.6c-2.937,0-4.8,1.576-5.158,2.722v-2.579h-5.8c.072,1.361,0,16.334,0,16.334h5.8v-8.812a3.976,3.976,0,0,1,.143-1.361,2.925,2.925,0,0,1,2.794-2.006c2.006,0,2.937,1.5,2.937,3.725v8.454h5.875v-9.1C766.281,156.964,763.415,154.6,759.761,154.6Z" transform="translate(-3.545 -2.978)" fill="#fff"/>
    <path id="Path_101" data-name="Path 101" d="M739.452,144.1a2.868,2.868,0,0,0-3.152,2.866,2.832,2.832,0,0,0,3.081,2.794h.072a2.846,2.846,0,1,0,0-5.66Z" transform="translate(0)" fill="#fff"/>
  </g>
</svg>
