<svg xmlns="http://www.w3.org/2000/svg" width="46.545" height="32" viewBox="0 0 46.545 32">
  <g id="kitchen" transform="translate(0 -80)">
    <g id="Group_165" data-name="Group 165" transform="translate(0 80)">
      <g id="Group_164" data-name="Group 164" transform="translate(0 0)">
        <path id="Path_102" data-name="Path 102" d="M45.818,90.909H42.182V80.727a.727.727,0,0,0-1.455,0v1.455H28.364V80.727a.727.727,0,0,0-1.455,0V90.909H21.091V84.364a3.636,3.636,0,0,0-7.273,0v.727a.727.727,0,0,0,1.455,0v-.727a2.182,2.182,0,0,1,4.364,0v6.545H18.182V88.727A.727.727,0,0,0,17.455,88H4.364a.727.727,0,0,0-.727.727v2.182H.727A.727.727,0,0,0,0,91.636v16a.727.727,0,0,0,.727.727H5.091v2.909a.727.727,0,0,0,.727.727H40.727a.727.727,0,0,0,.727-.727v-2.909h4.364a.727.727,0,0,0,.727-.727v-16A.727.727,0,0,0,45.818,90.909ZM28.364,83.636H40.727v1.455H28.364Zm0,2.909H40.727V88H28.364Zm0,2.909H40.727v1.455H28.364Zm-23.273,0H16.727v1.455H5.091ZM1.455,106.909V92.364H22.545v14.545ZM40,110.545H6.545v-2.182H40Zm5.091-3.636H24V92.364H45.091Z" transform="translate(0 -80)"/>
        <path id="Path_103" data-name="Path 103" d="M186.182,264a2.182,2.182,0,1,0,2.182,2.182A2.182,2.182,0,0,0,186.182,264Zm0,2.909a.727.727,0,1,1,.727-.727A.727.727,0,0,1,186.182,266.909Z" transform="translate(-167.273 -247.273)"/>
        <path id="Path_104" data-name="Path 104" d="M282.182,268.364A2.182,2.182,0,1,0,280,266.182,2.182,2.182,0,0,0,282.182,268.364Zm0-2.909a.727.727,0,1,1-.727.727A.727.727,0,0,1,282.182,265.455Z" transform="translate(-254.545 -247.273)"/>
      </g>
    </g>
  </g>
</svg>
