<svg xmlns="http://www.w3.org/2000/svg" width="24.066" height="24" viewBox="0 0 24.066 24">
  <path id="Instagram" d="M1013.98,142.1h-18.3a2.855,2.855,0,0,0-2.885,2.82V163.28a2.855,2.855,0,0,0,2.885,2.82h18.3a2.855,2.855,0,0,0,2.885-2.82V144.92A2.944,2.944,0,0,0,1013.98,142.1Zm-3.934,3.8a.728.728,0,0,1,.721-.721H1013a.728.728,0,0,1,.721.721v2.23a.728.728,0,0,1-.721.721h-2.229a.728.728,0,0,1-.721-.721Zm-5.246,3.672a4.591,4.591,0,1,1,0,9.18,4.59,4.59,0,0,1,0-9.18Zm9.771,13.574a.728.728,0,0,1-.721.721H995.816a.728.728,0,0,1-.721-.721V151.87h3.016a4.715,4.715,0,0,0-.525,2.3,7.345,7.345,0,0,0,14.689,0,3.666,3.666,0,0,0-.59-2.3h3.016v11.279Z" transform="translate(-992.8 -142.1)" fill="#fff"/>
</svg>
